<mxfile host="app.diagrams.net" agent="Mozilla/5.0 (Windows NT 10.0; Win64; x64) AppleWebKit/537.36 (KHTML, like Gecko) Chrome/134.0.0.0 Safari/537.36" version="26.0.7">
  <diagram id="6a731a19-8d31-9384-78a2-239565b7b9f0" name="Page-1">
    <mxGraphModel dx="1195" dy="615" grid="1" gridSize="10" guides="1" tooltips="1" connect="1" arrows="1" fold="1" page="1" pageScale="1" pageWidth="1169" pageHeight="827" background="none" math="0" shadow="0">
      <root>
        <mxCell id="0" />
        <mxCell id="1" parent="0" />
        <mxCell id="yubhM1SOayhGXeNkUcZc-1801" value="Centralized Cam Switch System&lt;br&gt;(Central Control Cabinet)&lt;br&gt;Motion Controller" style="swimlane;fontStyle=0;childLayout=stackLayout;horizontal=1;startSize=50;fillColor=none;horizontalStack=0;resizeParent=1;resizeParentMax=0;resizeLast=0;collapsible=1;marginBottom=0;html=1;" vertex="1" parent="1">
          <mxGeometry x="190" y="300" width="200" height="180" as="geometry" />
        </mxCell>
        <mxCell id="yubhM1SOayhGXeNkUcZc-1802" value="Cam Switch 1" style="text;strokeColor=none;fillColor=none;align=left;verticalAlign=top;spacingLeft=4;spacingRight=4;overflow=hidden;rotatable=0;points=[[0,0.5],[1,0.5]];portConstraint=eastwest;whiteSpace=wrap;html=1;" vertex="1" parent="yubhM1SOayhGXeNkUcZc-1801">
          <mxGeometry y="50" width="200" height="26" as="geometry" />
        </mxCell>
        <mxCell id="yubhM1SOayhGXeNkUcZc-1803" value="Cam Switch&amp;nbsp;2" style="text;strokeColor=none;fillColor=none;align=left;verticalAlign=top;spacingLeft=4;spacingRight=4;overflow=hidden;rotatable=0;points=[[0,0.5],[1,0.5]];portConstraint=eastwest;whiteSpace=wrap;html=1;" vertex="1" parent="yubhM1SOayhGXeNkUcZc-1801">
          <mxGeometry y="76" width="200" height="26" as="geometry" />
        </mxCell>
        <mxCell id="yubhM1SOayhGXeNkUcZc-1804" value="Cam Switch&amp;nbsp;3" style="text;strokeColor=none;fillColor=none;align=left;verticalAlign=top;spacingLeft=4;spacingRight=4;overflow=hidden;rotatable=0;points=[[0,0.5],[1,0.5]];portConstraint=eastwest;whiteSpace=wrap;html=1;" vertex="1" parent="yubhM1SOayhGXeNkUcZc-1801">
          <mxGeometry y="102" width="200" height="26" as="geometry" />
        </mxCell>
        <mxCell id="yubhM1SOayhGXeNkUcZc-1805" value="Cam Switch&amp;nbsp;4" style="text;strokeColor=none;fillColor=none;align=left;verticalAlign=top;spacingLeft=4;spacingRight=4;overflow=hidden;rotatable=0;points=[[0,0.5],[1,0.5]];portConstraint=eastwest;whiteSpace=wrap;html=1;" vertex="1" parent="yubhM1SOayhGXeNkUcZc-1801">
          <mxGeometry y="128" width="200" height="26" as="geometry" />
        </mxCell>
        <mxCell id="yubhM1SOayhGXeNkUcZc-1806" value="......" style="text;strokeColor=none;fillColor=none;align=left;verticalAlign=top;spacingLeft=4;spacingRight=4;overflow=hidden;rotatable=0;points=[[0,0.5],[1,0.5]];portConstraint=eastwest;whiteSpace=wrap;html=1;" vertex="1" parent="yubhM1SOayhGXeNkUcZc-1801">
          <mxGeometry y="154" width="200" height="26" as="geometry" />
        </mxCell>
        <mxCell id="yubhM1SOayhGXeNkUcZc-1807" value="Device 1" style="whiteSpace=wrap;html=1;align=center;verticalAlign=middle;treeFolding=1;treeMoving=1;newEdgeStyle={&quot;edgeStyle&quot;:&quot;elbowEdgeStyle&quot;,&quot;startArrow&quot;:&quot;none&quot;,&quot;endArrow&quot;:&quot;none&quot;};" vertex="1" parent="1">
          <mxGeometry x="80" y="530" width="70" height="30" as="geometry" />
        </mxCell>
        <mxCell id="yubhM1SOayhGXeNkUcZc-1808" value="" style="edgeStyle=elbowEdgeStyle;elbow=vertical;sourcePerimeterSpacing=0;targetPerimeterSpacing=0;startArrow=none;endArrow=none;rounded=0;curved=0;" edge="1" target="yubhM1SOayhGXeNkUcZc-1807" parent="1" source="yubhM1SOayhGXeNkUcZc-1801">
          <mxGeometry relative="1" as="geometry">
            <mxPoint x="370" y="490" as="sourcePoint" />
          </mxGeometry>
        </mxCell>
        <mxCell id="yubhM1SOayhGXeNkUcZc-1810" value="Device 2" style="whiteSpace=wrap;html=1;align=center;verticalAlign=middle;treeFolding=1;treeMoving=1;newEdgeStyle={&quot;edgeStyle&quot;:&quot;elbowEdgeStyle&quot;,&quot;startArrow&quot;:&quot;none&quot;,&quot;endArrow&quot;:&quot;none&quot;};" vertex="1" parent="1">
          <mxGeometry x="200" y="530" width="70" height="30" as="geometry" />
        </mxCell>
        <mxCell id="yubhM1SOayhGXeNkUcZc-1811" value="" style="edgeStyle=elbowEdgeStyle;elbow=vertical;sourcePerimeterSpacing=0;targetPerimeterSpacing=0;startArrow=none;endArrow=none;rounded=0;curved=0;" edge="1" target="yubhM1SOayhGXeNkUcZc-1810" parent="1" source="yubhM1SOayhGXeNkUcZc-1801">
          <mxGeometry relative="1" as="geometry">
            <mxPoint x="220" y="495" as="sourcePoint" />
          </mxGeometry>
        </mxCell>
        <mxCell id="yubhM1SOayhGXeNkUcZc-1812" value="Device 3" style="whiteSpace=wrap;html=1;align=center;verticalAlign=middle;treeFolding=1;treeMoving=1;newEdgeStyle={&quot;edgeStyle&quot;:&quot;elbowEdgeStyle&quot;,&quot;startArrow&quot;:&quot;none&quot;,&quot;endArrow&quot;:&quot;none&quot;};" vertex="1" parent="1">
          <mxGeometry x="320" y="530" width="70" height="30" as="geometry" />
        </mxCell>
        <mxCell id="yubhM1SOayhGXeNkUcZc-1813" value="" style="edgeStyle=elbowEdgeStyle;elbow=vertical;sourcePerimeterSpacing=0;targetPerimeterSpacing=0;startArrow=none;endArrow=none;rounded=0;curved=0;" edge="1" parent="1" target="yubhM1SOayhGXeNkUcZc-1812" source="yubhM1SOayhGXeNkUcZc-1801">
          <mxGeometry relative="1" as="geometry">
            <mxPoint x="540" y="476" as="sourcePoint" />
          </mxGeometry>
        </mxCell>
        <mxCell id="yubhM1SOayhGXeNkUcZc-1814" value="Device 4" style="whiteSpace=wrap;html=1;align=center;verticalAlign=middle;treeFolding=1;treeMoving=1;newEdgeStyle={&quot;edgeStyle&quot;:&quot;elbowEdgeStyle&quot;,&quot;startArrow&quot;:&quot;none&quot;,&quot;endArrow&quot;:&quot;none&quot;};" vertex="1" parent="1">
          <mxGeometry x="440" y="530" width="70" height="30" as="geometry" />
        </mxCell>
        <mxCell id="yubhM1SOayhGXeNkUcZc-1815" value="" style="edgeStyle=elbowEdgeStyle;elbow=vertical;sourcePerimeterSpacing=0;targetPerimeterSpacing=0;startArrow=none;endArrow=none;rounded=0;curved=0;" edge="1" parent="1" target="yubhM1SOayhGXeNkUcZc-1814" source="yubhM1SOayhGXeNkUcZc-1801">
          <mxGeometry relative="1" as="geometry">
            <mxPoint x="660" y="476" as="sourcePoint" />
          </mxGeometry>
        </mxCell>
        <mxCell id="yubhM1SOayhGXeNkUcZc-1816" value="Device 1&lt;br&gt;&lt;br&gt;Cam Switch 1" style="shape=module;align=left;spacingLeft=20;align=center;verticalAlign=top;whiteSpace=wrap;html=1;" vertex="1" parent="1">
          <mxGeometry x="650" y="450" width="100" height="50" as="geometry" />
        </mxCell>
        <mxCell id="yubhM1SOayhGXeNkUcZc-1817" value="" style="shape=line;html=1;strokeWidth=6;strokeColor=#ff0000;" vertex="1" parent="1">
          <mxGeometry x="640" y="410" width="240" height="10" as="geometry" />
        </mxCell>
        <mxCell id="yubhM1SOayhGXeNkUcZc-1818" value="" style="edgeStyle=orthogonalEdgeStyle;html=1;verticalAlign=bottom;endArrow=open;endSize=8;strokeColor=#ff0000;rounded=0;exitX=0.25;exitY=0.5;exitDx=0;exitDy=0;exitPerimeter=0;" edge="1" source="yubhM1SOayhGXeNkUcZc-1817" parent="1" target="yubhM1SOayhGXeNkUcZc-1816">
          <mxGeometry relative="1" as="geometry">
            <mxPoint x="680" y="660" as="targetPoint" />
            <mxPoint x="720" y="460" as="sourcePoint" />
          </mxGeometry>
        </mxCell>
        <mxCell id="yubhM1SOayhGXeNkUcZc-1821" value="Device 2&lt;br&gt;&lt;br&gt;Cam Switch 2" style="shape=module;align=left;spacingLeft=20;align=center;verticalAlign=top;whiteSpace=wrap;html=1;" vertex="1" parent="1">
          <mxGeometry x="710" y="320" width="100" height="50" as="geometry" />
        </mxCell>
        <mxCell id="yubhM1SOayhGXeNkUcZc-1822" value="" style="edgeStyle=orthogonalEdgeStyle;html=1;verticalAlign=bottom;endArrow=open;endSize=8;strokeColor=#ff0000;rounded=0;exitX=0.503;exitY=0.667;exitDx=0;exitDy=0;exitPerimeter=0;" edge="1" parent="1" source="yubhM1SOayhGXeNkUcZc-1817" target="yubhM1SOayhGXeNkUcZc-1821">
          <mxGeometry relative="1" as="geometry">
            <mxPoint x="870" y="261.67" as="targetPoint" />
            <mxPoint x="810" y="370" as="sourcePoint" />
          </mxGeometry>
        </mxCell>
        <mxCell id="yubhM1SOayhGXeNkUcZc-1823" value="Device 1&lt;br&gt;&lt;br&gt;Cam Switch 1" style="shape=module;align=left;spacingLeft=20;align=center;verticalAlign=top;whiteSpace=wrap;html=1;" vertex="1" parent="1">
          <mxGeometry x="770" y="450" width="100" height="50" as="geometry" />
        </mxCell>
        <mxCell id="yubhM1SOayhGXeNkUcZc-1824" value="" style="edgeStyle=orthogonalEdgeStyle;html=1;verticalAlign=bottom;endArrow=open;endSize=8;strokeColor=#ff0000;rounded=0;exitX=0.75;exitY=0.5;exitDx=0;exitDy=0;exitPerimeter=0;" edge="1" parent="1" target="yubhM1SOayhGXeNkUcZc-1823" source="yubhM1SOayhGXeNkUcZc-1817">
          <mxGeometry relative="1" as="geometry">
            <mxPoint x="790" y="660" as="targetPoint" />
            <mxPoint x="840" y="440" as="sourcePoint" />
          </mxGeometry>
        </mxCell>
      </root>
    </mxGraphModel>
  </diagram>
</mxfile>
